<?xml version="1.0" standalone="no"?>
<!DOCTYPE svg PUBLIC "-//W3C//DTD SVG 20010904//EN"
 "http://www.w3.org/TR/2001/REC-SVG-20010904/DTD/svg10.dtd">
<svg version="1.0" xmlns="http://www.w3.org/2000/svg"
 width="658.000000pt" height="658.000000pt" viewBox="0 0 658.000000 658.000000"
 preserveAspectRatio="xMidYMid meet">
<metadata>
Created by potrace 1.14, written by Peter Selinger 2001-2017
</metadata>
<g transform="translate(0.000000,658.000000) scale(0.100000,-0.100000)"
fill="#000000" stroke="none">
<path d="M768 5681 c-162 -53 -266 -189 -288 -376 -26 -224 -11 -808 26 -1029
69 -409 211 -659 429 -757 l72 -33 -103 -405 c-76 -300 -107 -409 -121 -419
-10 -7 -76 -47 -148 -89 -173 -100 -193 -126 -141 -178 22 -22 30 -24 89 -18
36 3 76 3 91 -1 l25 -6 -31 -83 c-53 -141 -88 -260 -88 -300 0 -46 -50 -107
-87 -107 -33 0 -170 -47 -213 -72 -82 -49 -132 -114 -155 -205 -29 -113 -13
-256 41 -352 13 -24 24 -45 24 -47 0 -2 -43 -4 -95 -4 l-95 0 0 -50 0 -50 123
-1 c164 -2 154 0 227 -54 116 -84 283 -158 425 -186 43 -9 135 -14 235 -14
145 0 174 3 240 23 88 28 197 81 261 128 l47 34 692 0 692 0 46 -41 c103 -90
266 -167 405 -190 62 -10 105 -11 215 -1 141 12 200 25 269 61 51 26 71 57 75
117 l3 49 605 5 605 5 50 -27 c64 -34 198 -80 300 -104 115 -27 331 -25 438 4
104 29 229 89 301 146 l59 46 134 0 133 0 0 50 0 50 -95 0 c-52 0 -95 1 -95 3
0 1 9 20 20 41 10 21 27 72 36 114 41 185 -22 317 -201 417 -49 28 -63 42 -78
78 -9 24 -37 62 -60 85 -39 38 -42 45 -39 87 l4 45 79 0 c68 0 81 3 99 22 25
27 25 45 0 133 -42 146 -137 302 -225 368 l-42 32 -23 140 c-36 229 -106 489
-194 716 l-25 67 31 13 c42 17 124 102 182 188 247 368 416 1009 377 1429 -20
215 -59 331 -141 412 -74 75 -105 85 -250 85 -123 0 -128 -1 -270 -48 -454
-152 -802 -350 -1055 -602 -167 -166 -255 -317 -280 -483 -7 -41 -9 -44 -34
-38 -72 15 -381 66 -491 81 -189 24 -570 38 -725 25 -270 -22 -355 -33 -525
-67 -96 -19 -178 -37 -181 -39 -3 -2 -14 35 -24 83 -21 100 -75 216 -134 291
-71 89 -240 260 -346 350 -132 111 -373 271 -510 338 -236 114 -465 159 -597
115z m323 -156 c294 -87 636 -315 910 -606 170 -181 205 -248 233 -447 10 -69
18 -96 32 -107 25 -19 34 -19 140 5 175 40 391 79 504 90 154 15 568 21 705 9
154 -13 452 -55 565 -80 119 -27 227 -33 256 -14 17 11 22 28 28 89 14 153 68
271 179 392 258 280 630 500 1085 644 124 39 140 42 227 38 92 -3 95 -4 130
-38 57 -55 82 -114 101 -241 20 -135 15 -380 -11 -524 -69 -395 -238 -815
-401 -995 -54 -59 -69 -66 -110 -44 -41 22 -81 12 -103 -28 -14 -25 -12 -32
31 -124 113 -242 220 -633 253 -929 7 -68 17 -85 60 -108 38 -20 89 -69 127
-124 29 -44 82 -153 76 -159 -2 -2 -42 12 -88 31 -101 41 -142 44 -164 13 -26
-37 -20 -71 20 -109 45 -43 66 -83 59 -111 -6 -22 -10 -23 -108 -22 -79 1
-116 7 -162 24 -37 14 -93 24 -146 27 -85 6 -87 5 -140 -29 -31 -20 -71 -53
-90 -75 -28 -32 -45 -42 -94 -52 -235 -51 -355 -178 -355 -376 0 -132 34 -230
113 -328 l47 -57 -555 0 c-520 0 -559 1 -613 19 -31 11 -93 25 -137 31 -125
20 -156 30 -187 60 -25 26 -28 35 -28 97 l0 68 73 0 c123 1 277 64 330 136 13
18 19 43 19 80 1 84 -10 118 -38 125 -41 10 -57 -12 -49 -71 3 -28 2 -62 -3
-76 -18 -46 -170 -109 -264 -109 -53 0 -138 34 -186 76 -39 33 -108 122 -100
128 1 2 26 11 54 21 148 52 259 186 240 290 -14 71 -114 151 -223 176 -83 19
-221 13 -288 -12 -74 -28 -141 -88 -155 -140 -19 -71 26 -180 97 -237 44 -34
135 -82 158 -82 21 0 19 -16 -10 -58 -39 -58 -117 -134 -152 -148 -54 -23
-109 -17 -175 18 -106 56 -131 113 -88 198 19 37 19 39 1 61 -29 36 -64 20
-90 -40 -38 -90 -20 -176 52 -243 40 -38 163 -98 199 -98 33 0 33 2 8 -78 -11
-36 -20 -92 -20 -128 l0 -64 -604 0 -605 0 24 54 c13 30 29 85 36 122 30 171
-38 303 -199 387 -57 30 -72 44 -87 77 -57 127 -200 191 -357 161 -54 -10 -62
-8 -130 21 -51 21 -97 33 -149 37 l-77 6 38 110 c20 61 51 144 69 185 17 41
31 85 31 97 0 22 -42 63 -66 63 -35 0 -17 21 47 55 41 21 74 46 78 58 5 12 58
217 117 454 l109 433 31 0 c40 0 84 34 84 65 0 12 -8 33 -19 46 -16 20 -30 23
-124 29 -97 6 -111 10 -163 41 -103 62 -190 189 -248 364 -83 249 -123 731
-96 1168 7 122 13 156 33 200 43 94 100 143 194 167 56 14 119 5 254 -35z
m4554 -3611 c59 -22 85 -26 166 -24 145 2 207 -31 249 -134 19 -47 27 -55 84
-83 173 -86 219 -211 138 -375 -122 -248 -503 -347 -869 -226 -177 58 -340
179 -398 295 -40 78 -48 208 -17 269 41 80 128 133 258 158 66 12 82 19 99 42
73 103 160 126 290 78z m-4713 -74 c65 -32 69 -32 124 -21 78 15 149 14 183
-4 40 -20 79 -69 91 -115 10 -36 17 -42 94 -80 131 -64 176 -134 163 -255 -13
-124 -111 -247 -251 -315 -145 -70 -273 -90 -441 -70 -285 34 -531 172 -615
345 -29 59 -39 185 -20 247 26 87 127 153 274 179 57 10 68 15 93 47 52 71 79
83 168 78 54 -2 85 -10 137 -36z m2237 -417 c1 -76 3 -84 25 -98 19 -13 29
-14 45 -5 12 6 21 16 22 23 3 33 -3 203 -7 209 -12 19 12 5 48 -27 21 -20 50
-41 63 -47 24 -11 25 -15 23 -102 -2 -113 15 -156 80 -197 45 -29 74 -36 243
-64 118 -20 142 -39 143 -111 1 -38 -3 -50 -24 -65 -46 -35 -168 -52 -334 -47
-171 6 -214 17 -338 89 -179 105 -227 200 -179 354 27 89 41 113 75 135 17 10
47 35 66 55 l35 36 6 -28 c4 -15 7 -65 8 -110z"/>
<path d="M2335 2416 c-66 -30 -105 -102 -105 -193 0 -72 25 -127 74 -171 30
-27 45 -32 85 -32 64 0 107 30 143 99 37 71 38 137 2 209 -14 29 -39 61 -56
73 -37 27 -103 34 -143 15z"/>
<path d="M4020 2419 c-83 -34 -131 -145 -108 -253 8 -40 21 -61 58 -98 44 -45
51 -48 99 -48 45 0 56 4 93 38 22 20 49 55 59 77 68 149 -66 338 -201 284z"/>
</g>
</svg>
